<?xml version="1.0" encoding="UTF-8"?>
<svg id="Layer_1" data-name="Layer 1" xmlns="http://www.w3.org/2000/svg" width="32" height="32" viewBox="0 0 32 32">
  <defs>
    <style>
      .cls-1 {
        fill: #2fb44a;
        stroke-width: 0px;
      }
    </style>
  </defs>
  <path class="cls-1" d="M32,23.81v-9.75h0s-.09-13.57-.09-13.57c0-.16-.14-.3-.31-.3h-13.83c-.12-.01-.24.06-.28.17-.05.11-.02.24.07.33l13.53,13.2c.19.19.3.44.3.7v3.86c0,.48-.63.68-.92.29-.25-.33-.52-.64-.82-.94L13.75,2.3c-1.05-1.02-2.31-1.7-3.64-2.04-.17-.04-.34-.08-.51-.11-1.19-.23-2.42-.19-3.6.11-1.33.34-2.6,1.02-3.64,2.04-.66.65-1.19,1.38-1.57,2.16,0,0,0,0,0,0C.12,5.56.01,7.02,0,7.2c0,.01,0,.02,0,.02v.53c0,.07,0,.14,0,.21v23.74c0,.08.03.16.09.21.06.06.14.09.22.09h14.6c.12,0,.24-.07.28-.18.05-.11.02-.24-.07-.33L.91,17.63c-.19-.19-.3-.44-.3-.7v-4.48c0-.39.52-.55.74-.22.29.42.62.82,1,1.19l15.89,15.5c1.05,1.02,2.31,1.7,3.64,2.04.17.04.34.08.51.11,1.19.23,2.42.19,3.6-.11,1.34-.34,2.6-1.02,3.64-2.04.63-.62,1.14-1.31,1.52-2.06,0,0,0,0,0-.02.92-1.68.83-3.03.83-3.03ZM25.48,24.86c-.52.51-1.22.79-1.96.79s-1.44-.28-1.96-.79L6.52,10.17c-.52-.51-.81-1.19-.81-1.91s.29-1.4.81-1.91c.52-.51,1.22-.79,1.96-.79s1.44.28,1.96.79l15.05,14.68c.52.51.81,1.19.81,1.91s-.29,1.4-.81,1.91Z"/>
</svg>